<mxfile host="app.diagrams.net" modified="2023-04-11T15:42:17.826Z" agent="Mozilla/5.0 (X11; Linux x86_64) AppleWebKit/537.36 (KHTML, like Gecko) Chrome/112.0.0.0 Safari/537.36" etag="Hdkajjkv5SkAooV9Tw8B" version="21.1.4" type="device">
  <diagram name="Page-1" id="-ZelKc2Suht-jKJSaQjc">
    <mxGraphModel dx="1362" dy="775" grid="1" gridSize="10" guides="1" tooltips="1" connect="1" arrows="1" fold="1" page="1" pageScale="1" pageWidth="850" pageHeight="1100" math="0" shadow="0">
      <root>
        <mxCell id="0" />
        <mxCell id="1" parent="0" />
        <mxCell id="CAS8R4gVDCEsjwjKWIH2-1" value="" style="shape=mxgraph.signs.transportation.car_1;html=1;pointerEvents=1;fillColor=#0050ef;strokeColor=#001DBC;verticalLabelPosition=bottom;verticalAlign=top;align=center;fontColor=#ffffff;" parent="1" vertex="1">
          <mxGeometry x="20" y="390" width="60" height="50" as="geometry" />
        </mxCell>
        <mxCell id="CAS8R4gVDCEsjwjKWIH2-2" value="" style="shape=mxgraph.signs.transportation.car_1;html=1;pointerEvents=1;fillColor=#1ba1e2;strokeColor=#006EAF;verticalLabelPosition=bottom;verticalAlign=top;align=center;fontColor=#ffffff;" parent="1" vertex="1">
          <mxGeometry x="480" y="400" width="60" height="50" as="geometry" />
        </mxCell>
        <mxCell id="CAS8R4gVDCEsjwjKWIH2-3" value="" style="shape=mxgraph.signs.transportation.car_1;html=1;pointerEvents=1;fillColor=#d80073;strokeColor=#A50040;verticalLabelPosition=bottom;verticalAlign=top;align=center;fontColor=#ffffff;" parent="1" vertex="1">
          <mxGeometry x="520" y="350" width="60" height="50" as="geometry" />
        </mxCell>
        <mxCell id="CAS8R4gVDCEsjwjKWIH2-5" value="" style="shape=mxgraph.signs.transportation.car_1;html=1;pointerEvents=1;fillColor=#60a917;strokeColor=#2D7600;verticalLabelPosition=bottom;verticalAlign=top;align=center;fontColor=#ffffff;" parent="1" vertex="1">
          <mxGeometry x="40" y="330" width="60" height="50" as="geometry" />
        </mxCell>
        <mxCell id="CAS8R4gVDCEsjwjKWIH2-7" value="" style="shape=image;html=1;verticalAlign=top;verticalLabelPosition=bottom;labelBackgroundColor=#ffffff;imageAspect=0;aspect=fixed;image=https://cdn2.iconfinder.com/data/icons/navigation-and-mapping-1/65/road-128.png" parent="1" vertex="1">
          <mxGeometry x="62" y="260" width="70" height="70" as="geometry" />
        </mxCell>
        <mxCell id="CAS8R4gVDCEsjwjKWIH2-12" value="&lt;div&gt;&lt;b&gt;Vehicle OEM&lt;/b&gt;&lt;/div&gt;&lt;div&gt;&lt;b&gt;&amp;nbsp;Cloud&lt;/b&gt;&lt;/div&gt;" style="ellipse;shape=cloud;whiteSpace=wrap;html=1;fillColor=#e1d5e7;strokeColor=#9673a6;" parent="1" vertex="1">
          <mxGeometry x="10" y="100" width="120" height="80" as="geometry" />
        </mxCell>
        <mxCell id="CAS8R4gVDCEsjwjKWIH2-13" value="&lt;div&gt;&lt;b&gt;Road Radar&lt;/b&gt;&lt;/div&gt;&lt;div&gt;&lt;b&gt;Signature Service&lt;/b&gt;&lt;br&gt; &lt;/div&gt;" style="ellipse;shape=cloud;whiteSpace=wrap;html=1;fillColor=#fff2cc;strokeColor=#d6b656;" parent="1" vertex="1">
          <mxGeometry x="150" y="100" width="120" height="80" as="geometry" />
        </mxCell>
        <mxCell id="CAS8R4gVDCEsjwjKWIH2-14" value="&lt;div&gt;&lt;b&gt;Radar IoT &lt;br&gt;&lt;/b&gt;&lt;/div&gt;&lt;div&gt;&lt;b&gt;Cloud&lt;/b&gt;&lt;/div&gt;" style="ellipse;shape=cloud;whiteSpace=wrap;html=1;fillColor=#fff2cc;strokeColor=#d6b656;" parent="1" vertex="1">
          <mxGeometry x="400" y="100" width="120" height="80" as="geometry" />
        </mxCell>
        <mxCell id="CAS8R4gVDCEsjwjKWIH2-15" value="&lt;div&gt;&lt;b&gt;Vehicle OEM &lt;br&gt;&lt;/b&gt;&lt;/div&gt;&lt;div&gt;&lt;b&gt;Cloud&lt;/b&gt;&lt;/div&gt;" style="ellipse;shape=cloud;whiteSpace=wrap;html=1;fillColor=#e1d5e7;strokeColor=#9673a6;" parent="1" vertex="1">
          <mxGeometry x="520" y="100" width="120" height="80" as="geometry" />
        </mxCell>
        <mxCell id="CAS8R4gVDCEsjwjKWIH2-16" value="&lt;div&gt;&lt;b&gt;Blockchain &lt;br&gt;&lt;/b&gt;&lt;/div&gt;&lt;div&gt;&lt;b&gt;Substrate&lt;/b&gt;&lt;/div&gt;&lt;div&gt;&lt;b&gt;Cloud&lt;/b&gt;&lt;br&gt;&lt;/div&gt;" style="ellipse;shape=cloud;whiteSpace=wrap;html=1;fillColor=#f8cecc;strokeColor=#b85450;" parent="1" vertex="1">
          <mxGeometry x="280" y="100" width="120" height="80" as="geometry" />
        </mxCell>
        <mxCell id="CAS8R4gVDCEsjwjKWIH2-17" value="" style="shape=image;html=1;verticalAlign=top;verticalLabelPosition=bottom;labelBackgroundColor=#ffffff;imageAspect=0;aspect=fixed;image=https://cdn2.iconfinder.com/data/icons/navigation-and-mapping-1/65/road-128.png" parent="1" vertex="1">
          <mxGeometry x="546" y="260" width="80" height="80" as="geometry" />
        </mxCell>
        <mxCell id="CAS8R4gVDCEsjwjKWIH2-18" value="" style="endArrow=classic;html=1;rounded=0;entryX=0.008;entryY=0.898;entryDx=0;entryDy=0;entryPerimeter=0;" parent="1" target="CAS8R4gVDCEsjwjKWIH2-7" edge="1">
          <mxGeometry width="50" height="50" relative="1" as="geometry">
            <mxPoint x="62" y="180" as="sourcePoint" />
            <mxPoint x="62" y="280" as="targetPoint" />
            <Array as="points">
              <mxPoint x="62" y="250" />
            </Array>
          </mxGeometry>
        </mxCell>
        <mxCell id="CAS8R4gVDCEsjwjKWIH2-19" value="" style="endArrow=classic;html=1;rounded=0;" parent="1" edge="1">
          <mxGeometry width="50" height="50" relative="1" as="geometry">
            <mxPoint x="32" y="170" as="sourcePoint" />
            <mxPoint x="33" y="380" as="targetPoint" />
            <Array as="points">
              <mxPoint x="32" y="240" />
            </Array>
          </mxGeometry>
        </mxCell>
        <mxCell id="CAS8R4gVDCEsjwjKWIH2-20" value="" style="shape=image;html=1;verticalAlign=top;verticalLabelPosition=bottom;labelBackgroundColor=#ffffff;imageAspect=0;aspect=fixed;image=https://cdn1.iconfinder.com/data/icons/computer-hardware-cute-style-vol-2/52/signal__device__technology__radar__satellite__antenna__tower-128.png" parent="1" vertex="1">
          <mxGeometry x="560" y="212" width="40" height="40" as="geometry" />
        </mxCell>
        <mxCell id="CAS8R4gVDCEsjwjKWIH2-21" value="" style="html=1;verticalLabelPosition=bottom;align=center;labelBackgroundColor=#ffffff;verticalAlign=top;strokeWidth=2;strokeColor=#0080F0;shadow=0;dashed=0;shape=mxgraph.ios7.icons.video_conversation;" parent="1" vertex="1">
          <mxGeometry x="480" y="222" width="30" height="20" as="geometry" />
        </mxCell>
        <mxCell id="CAS8R4gVDCEsjwjKWIH2-22" value="" style="endArrow=none;dashed=1;html=1;dashPattern=1 3;strokeWidth=2;rounded=0;entryX=0.5;entryY=0;entryDx=0;entryDy=0;entryPerimeter=0;" parent="1" target="CAS8R4gVDCEsjwjKWIH2-2" edge="1">
          <mxGeometry width="50" height="50" relative="1" as="geometry">
            <mxPoint x="510" y="210" as="sourcePoint" />
            <mxPoint x="450" y="390" as="targetPoint" />
          </mxGeometry>
        </mxCell>
        <mxCell id="CAS8R4gVDCEsjwjKWIH2-24" value="" style="endArrow=none;dashed=1;html=1;dashPattern=1 3;strokeWidth=2;rounded=0;entryX=0.55;entryY=0.95;entryDx=0;entryDy=0;entryPerimeter=0;" parent="1" target="CAS8R4gVDCEsjwjKWIH2-15" edge="1">
          <mxGeometry width="50" height="50" relative="1" as="geometry">
            <mxPoint x="510" y="210" as="sourcePoint" />
            <mxPoint x="450" y="390" as="targetPoint" />
          </mxGeometry>
        </mxCell>
        <mxCell id="CAS8R4gVDCEsjwjKWIH2-25" value="" style="endArrow=none;dashed=1;html=1;dashPattern=1 3;strokeWidth=2;rounded=0;entryX=0.5;entryY=0;entryDx=0;entryDy=0;entryPerimeter=0;" parent="1" target="CAS8R4gVDCEsjwjKWIH2-3" edge="1">
          <mxGeometry width="50" height="50" relative="1" as="geometry">
            <mxPoint x="550" y="230" as="sourcePoint" />
            <mxPoint x="520" y="410" as="targetPoint" />
          </mxGeometry>
        </mxCell>
        <mxCell id="CAS8R4gVDCEsjwjKWIH2-27" value="" style="endArrow=none;dashed=1;html=1;dashPattern=1 3;strokeWidth=2;rounded=0;entryX=0.55;entryY=0.95;entryDx=0;entryDy=0;entryPerimeter=0;" parent="1" target="CAS8R4gVDCEsjwjKWIH2-15" edge="1">
          <mxGeometry width="50" height="50" relative="1" as="geometry">
            <mxPoint x="550" y="230" as="sourcePoint" />
            <mxPoint x="150" y="550" as="targetPoint" />
          </mxGeometry>
        </mxCell>
        <mxCell id="CAS8R4gVDCEsjwjKWIH2-28" value="" style="shape=mxgraph.signs.transportation.car_1;html=1;pointerEvents=1;fillColor=#6a00ff;strokeColor=#3700CC;verticalLabelPosition=bottom;verticalAlign=top;align=center;fontColor=#ffffff;" parent="1" vertex="1">
          <mxGeometry x="230" y="380" width="60" height="50" as="geometry" />
        </mxCell>
        <mxCell id="CAS8R4gVDCEsjwjKWIH2-29" value="" style="shape=mxgraph.signs.transportation.car_1;html=1;pointerEvents=1;fillColor=#a20025;strokeColor=#6F0000;verticalLabelPosition=bottom;verticalAlign=top;align=center;fontColor=#ffffff;" parent="1" vertex="1">
          <mxGeometry x="280" y="320" width="60" height="50" as="geometry" />
        </mxCell>
        <mxCell id="CAS8R4gVDCEsjwjKWIH2-30" value="&lt;b&gt;Road Video Signature Data&lt;/b&gt;" style="text;html=1;strokeColor=none;fillColor=none;align=center;verticalAlign=middle;whiteSpace=wrap;rounded=0;" parent="1" vertex="1">
          <mxGeometry x="400" y="252" width="90" height="30" as="geometry" />
        </mxCell>
        <mxCell id="CAS8R4gVDCEsjwjKWIH2-31" value="&lt;b&gt;Road Radar Signature Data&lt;/b&gt;" style="text;html=1;strokeColor=none;fillColor=none;align=center;verticalAlign=middle;whiteSpace=wrap;rounded=0;" parent="1" vertex="1">
          <mxGeometry x="600" y="222" width="90" height="30" as="geometry" />
        </mxCell>
        <mxCell id="CAS8R4gVDCEsjwjKWIH2-32" value="" style="endArrow=classic;startArrow=classic;html=1;rounded=0;exitX=0.875;exitY=0.5;exitDx=0;exitDy=0;exitPerimeter=0;entryX=0.067;entryY=0.5;entryDx=0;entryDy=0;entryPerimeter=0;" parent="1" edge="1">
          <mxGeometry width="50" height="50" relative="1" as="geometry">
            <mxPoint x="115" y="150" as="sourcePoint" />
            <mxPoint x="158.03999999999996" y="150" as="targetPoint" />
          </mxGeometry>
        </mxCell>
        <mxCell id="CAS8R4gVDCEsjwjKWIH2-33" value="" style="endArrow=classic;startArrow=classic;html=1;rounded=0;exitX=0.875;exitY=0.5;exitDx=0;exitDy=0;exitPerimeter=0;entryX=0.067;entryY=0.5;entryDx=0;entryDy=0;entryPerimeter=0;" parent="1" edge="1">
          <mxGeometry width="50" height="50" relative="1" as="geometry">
            <mxPoint x="255" y="150" as="sourcePoint" />
            <mxPoint x="298" y="150" as="targetPoint" />
          </mxGeometry>
        </mxCell>
        <mxCell id="CAS8R4gVDCEsjwjKWIH2-34" value="" style="endArrow=classic;startArrow=classic;html=1;rounded=0;exitX=0.875;exitY=0.5;exitDx=0;exitDy=0;exitPerimeter=0;" parent="1" edge="1">
          <mxGeometry width="50" height="50" relative="1" as="geometry">
            <mxPoint x="385" y="149" as="sourcePoint" />
            <mxPoint x="420" y="149" as="targetPoint" />
          </mxGeometry>
        </mxCell>
        <mxCell id="CAS8R4gVDCEsjwjKWIH2-35" value="" style="endArrow=classic;startArrow=classic;html=1;rounded=0;exitX=0.875;exitY=0.5;exitDx=0;exitDy=0;exitPerimeter=0;" parent="1" edge="1">
          <mxGeometry width="50" height="50" relative="1" as="geometry">
            <mxPoint x="505" y="149" as="sourcePoint" />
            <mxPoint x="540" y="149" as="targetPoint" />
          </mxGeometry>
        </mxCell>
        <mxCell id="CAS8R4gVDCEsjwjKWIH2-37" value="" style="html=1;verticalLabelPosition=bottom;align=center;labelBackgroundColor=#ffffff;verticalAlign=top;strokeWidth=2;strokeColor=#0080F0;shadow=0;dashed=0;shape=mxgraph.ios7.icons.map;" parent="1" vertex="1">
          <mxGeometry x="70" y="212" width="30" height="30" as="geometry" />
        </mxCell>
        <mxCell id="CAS8R4gVDCEsjwjKWIH2-38" value="&lt;b&gt;HD Road Map Signature Data&lt;/b&gt;" style="text;html=1;strokeColor=none;fillColor=none;align=center;verticalAlign=middle;whiteSpace=wrap;rounded=0;" parent="1" vertex="1">
          <mxGeometry x="110" y="212" width="90" height="30" as="geometry" />
        </mxCell>
        <mxCell id="dcZyRp7J8LwddMLk20nW-1" value="" style="shape=mxgraph.signs.transportation.motorcycle;html=1;pointerEvents=1;fillColor=#000000;strokeColor=none;verticalLabelPosition=bottom;verticalAlign=top;align=center;" vertex="1" parent="1">
          <mxGeometry x="220" y="440" width="50" height="30" as="geometry" />
        </mxCell>
        <mxCell id="dcZyRp7J8LwddMLk20nW-2" value="" style="shape=mxgraph.signs.transportation.highway;html=1;pointerEvents=1;fillColor=#000000;strokeColor=none;verticalLabelPosition=bottom;verticalAlign=top;align=center;" vertex="1" parent="1">
          <mxGeometry x="290" y="210" width="68" height="98" as="geometry" />
        </mxCell>
        <mxCell id="dcZyRp7J8LwddMLk20nW-3" value="" style="shape=mxgraph.signs.transportation.bus_1;html=1;pointerEvents=1;fillColor=#000000;strokeColor=none;verticalLabelPosition=bottom;verticalAlign=top;align=center;" vertex="1" parent="1">
          <mxGeometry x="555" y="425" width="35" height="45" as="geometry" />
        </mxCell>
        <mxCell id="dcZyRp7J8LwddMLk20nW-4" value="" style="shape=mxgraph.signs.transportation.gas_4;html=1;pointerEvents=1;fillColor=#000000;strokeColor=none;verticalLabelPosition=bottom;verticalAlign=top;align=center;" vertex="1" parent="1">
          <mxGeometry x="90" y="420" width="30" height="40" as="geometry" />
        </mxCell>
        <mxCell id="dcZyRp7J8LwddMLk20nW-5" value="" style="shape=mxgraph.signs.transportation.gas_4;html=1;pointerEvents=1;fillColor=#000000;strokeColor=none;verticalLabelPosition=bottom;verticalAlign=top;align=center;" vertex="1" parent="1">
          <mxGeometry x="340" y="212" width="30" height="40" as="geometry" />
        </mxCell>
      </root>
    </mxGraphModel>
  </diagram>
</mxfile>
